<svg width="556" height="352" viewBox="0 0 556 352" fill="none" xmlns="http://www.w3.org/2000/svg">
<mask id="path-1-inside-1_0_1" fill="white">
<path d="M441.125 131C438.364 135.783 440.003 141.899 444.786 144.66C449.569 147.422 455.685 145.783 458.446 141L555.441 197L523.957 251.532C514.678 254.012 506.346 260.034 501.165 269.009C495.983 277.984 494.933 288.211 497.424 297.488L466.441 351.152L369.446 295.152C372.207 290.369 370.569 284.254 365.786 281.492C361.003 278.731 354.887 280.369 352.125 285.152L295.834 252.652L337.514 242.46L325.5 201.269L367.181 191.076L355.167 149.884L396.847 139.692L384.834 98.4999L441.125 131Z"/>
</mask>
<path d="M441.125 131L449.786 136L454.786 127.34L446.125 122.34L441.125 131ZM458.446 141L463.446 132.34L454.786 127.34L449.786 136L458.446 141ZM555.441 197L564.101 202L569.101 193.34L560.441 188.34L555.441 197ZM523.957 251.532L526.539 261.192L530.544 260.122L532.617 256.532L523.957 251.532ZM497.424 297.488L506.084 302.488L508.157 298.897L507.082 294.893L497.424 297.488ZM466.441 351.152L461.441 359.813L470.101 364.813L475.101 356.152L466.441 351.152ZM369.446 295.152L360.786 290.152L355.786 298.813L364.446 303.813L369.446 295.152ZM352.125 285.152L347.125 293.813L355.786 298.813L360.786 290.152L352.125 285.152ZM295.834 252.652L293.458 242.939L269.259 248.856L290.834 261.313L295.834 252.652ZM337.514 242.46L339.889 252.174L350.04 249.692L347.114 239.66L337.514 242.46ZM325.5 201.269L323.125 191.555L312.975 194.037L315.9 204.068L325.5 201.269ZM367.181 191.076L369.556 200.79L379.706 198.308L376.781 188.276L367.181 191.076ZM355.167 149.884L352.792 140.17L342.642 142.652L345.567 152.684L355.167 149.884ZM396.847 139.692L399.222 149.406L409.373 146.924L406.447 136.892L396.847 139.692ZM384.834 98.4999L389.834 89.8396L368.259 77.3833L375.234 101.3L384.834 98.4999ZM441.125 131L432.465 126C426.942 135.566 430.22 147.798 439.786 153.32L444.786 144.66L449.786 136L441.125 131ZM444.786 144.66L439.786 153.32C449.352 158.843 461.583 155.566 467.106 146L458.446 141L449.786 136L444.786 144.66ZM458.446 141L453.446 149.66L550.441 205.66L555.441 197L560.441 188.34L463.446 132.34L458.446 141ZM555.441 197L546.781 192L515.297 246.532L523.957 251.532L532.617 256.532L564.101 202L555.441 197ZM523.957 251.532L521.375 241.871C509.637 245.008 499.067 252.643 492.504 264.009L501.165 269.009L509.825 274.009C513.626 267.425 519.719 263.015 526.539 261.192L523.957 251.532ZM501.165 269.009L492.504 264.009C485.942 275.375 484.614 288.347 487.767 300.082L497.424 297.488L507.082 294.893C505.251 288.076 506.023 280.593 509.825 274.009L501.165 269.009ZM497.424 297.488L488.764 292.488L457.781 346.152L466.441 351.152L475.101 356.152L506.084 302.488L497.424 297.488ZM466.441 351.152L471.441 342.492L374.446 286.492L369.446 295.152L364.446 303.813L461.441 359.813L466.441 351.152ZM369.446 295.152L378.106 300.152C383.629 290.587 380.352 278.355 370.786 272.832L365.786 281.492L360.786 290.152L369.446 295.152ZM365.786 281.492L370.786 272.832C361.22 267.309 348.988 270.587 343.465 280.152L352.125 285.152L360.786 290.152L365.786 281.492ZM352.125 285.152L357.125 276.492L300.834 243.992L295.834 252.652L290.834 261.313L347.125 293.813L352.125 285.152ZM295.834 252.652L298.209 262.366L339.889 252.174L337.514 242.46L335.139 232.746L293.458 242.939L295.834 252.652ZM337.514 242.46L347.114 239.66L335.1 198.469L325.5 201.269L315.9 204.068L327.914 245.26L337.514 242.46ZM325.5 201.269L327.876 210.982L369.556 200.79L367.181 191.076L364.805 181.362L323.125 191.555L325.5 201.269ZM367.181 191.076L376.781 188.276L364.767 147.084L355.167 149.884L345.567 152.684L357.581 193.876L367.181 191.076ZM355.167 149.884L357.543 159.598L399.222 149.406L396.847 139.692L394.472 129.978L352.792 140.17L355.167 149.884ZM396.847 139.692L406.447 136.892L394.434 95.7001L384.834 98.4999L375.234 101.3L387.247 142.492L396.847 139.692ZM384.834 98.4999L379.834 107.16L436.125 139.66L441.125 131L446.125 122.34L389.834 89.8396L384.834 98.4999Z" fill="#5A8AF9" mask="url(#path-1-inside-1_0_1)"/>
<rect width="0" height="174" transform="translate(450.518 138.732) rotate(30)" fill="#5A8AF9"/>
<line x1="437.353" y1="156.535" x2="442.353" y2="147.875" stroke="#5A8AF9" stroke-width="5"/>
<line x1="427.353" y1="173.855" x2="432.353" y2="165.195" stroke="#5A8AF9" stroke-width="5"/>
<line x1="417.353" y1="191.176" x2="422.353" y2="182.516" stroke="#5A8AF9" stroke-width="5"/>
<line x1="407.353" y1="208.496" x2="412.353" y2="199.836" stroke="#5A8AF9" stroke-width="5"/>
<line x1="397.353" y1="225.817" x2="402.353" y2="217.157" stroke="#5A8AF9" stroke-width="5"/>
<line x1="387.353" y1="243.138" x2="392.353" y2="234.477" stroke="#5A8AF9" stroke-width="5"/>
<line x1="377.353" y1="260.458" x2="382.353" y2="251.798" stroke="#5A8AF9" stroke-width="5"/>
<line x1="367.353" y1="277.778" x2="372.353" y2="269.118" stroke="#5A8AF9" stroke-width="5"/>
<mask id="path-11-inside-2_0_1" fill="white">
<path d="M170.607 98.4238L212.287 108.616L200.274 149.808L241.954 160L229.94 201.192L271.62 211.384L259.607 252.576L89 351.076L57.5161 296.545C60.0076 287.269 58.958 277.042 53.7763 268.067C48.5944 259.092 40.2626 253.069 30.9834 250.589L0 196.924L170.607 98.4238Z"/>
</mask>
<path d="M170.607 98.4238L172.982 88.71L169.083 87.7566L165.607 89.7636L170.607 98.4238ZM212.287 108.616L221.887 111.416L224.813 101.385L214.663 98.9024L212.287 108.616ZM200.274 149.808L190.673 147.008L187.748 157.039L197.898 159.522L200.274 149.808ZM241.954 160L251.554 162.8L254.479 152.768L244.329 150.286L241.954 160ZM229.94 201.192L220.34 198.393L217.415 208.424L227.565 210.906L229.94 201.192ZM271.62 211.384L281.22 214.184L284.146 204.152L273.996 201.67L271.62 211.384ZM259.607 252.576L264.607 261.237L268.083 259.23L269.207 255.376L259.607 252.576ZM89 351.076L80.3397 356.076L85.3397 364.737L94 359.737L89 351.076ZM57.5161 296.545L47.8584 293.951L46.783 297.954L48.8559 301.545L57.5161 296.545ZM30.9834 250.589L22.3231 255.589L24.396 259.179L28.4012 260.25L30.9834 250.589ZM0 196.924L-5 188.264L-13.6603 193.264L-8.66025 201.924L0 196.924ZM170.607 98.4238L168.232 108.138L209.912 118.33L212.287 108.616L214.663 98.9024L172.982 88.71L170.607 98.4238ZM212.287 108.616L202.687 105.816L190.673 147.008L200.274 149.808L209.874 152.608L221.887 111.416L212.287 108.616ZM200.274 149.808L197.898 159.522L239.578 169.714L241.954 160L244.329 150.286L202.649 140.094L200.274 149.808ZM241.954 160L232.354 157.2L220.34 198.393L229.94 201.192L239.541 203.992L251.554 162.8L241.954 160ZM229.94 201.192L227.565 210.906L269.245 221.098L271.62 211.384L273.996 201.67L232.316 191.479L229.94 201.192ZM271.62 211.384L262.02 208.584L250.007 249.777L259.607 252.576L269.207 255.376L281.22 214.184L271.62 211.384ZM259.607 252.576L254.607 243.916L84 342.416L89 351.076L94 359.737L264.607 261.237L259.607 252.576ZM89 351.076L97.6603 346.076L66.1764 291.545L57.5161 296.545L48.8559 301.545L80.3397 356.076L89 351.076ZM57.5161 296.545L67.1738 299.139C70.3255 287.405 68.9989 274.433 62.4365 263.067L53.7763 268.067L45.116 273.067C48.9172 279.651 49.6896 287.133 47.8584 293.951L57.5161 296.545ZM53.7763 268.067L62.4365 263.067C55.8742 251.701 45.3043 244.065 33.5656 240.928L30.9834 250.589L28.4012 260.25C35.2209 262.072 41.3146 266.483 45.116 273.067L53.7763 268.067ZM30.9834 250.589L39.6437 245.589L8.66025 191.924L0 196.924L-8.66025 201.924L22.3231 255.589L30.9834 250.589ZM0 196.924L5 205.584L175.607 107.084L170.607 98.4238L165.607 89.7636L-5 188.264L0 196.924Z" fill="#5A8AF9" mask="url(#path-11-inside-2_0_1)"/>
</svg>
