<svg width="45" height="34" viewBox="0 0 45 34" fill="none" xmlns="http://www.w3.org/2000/svg">
<path d="M1.59698 16.8022C1.59698 16.8022 9.09699 1.80225 22.222 1.80225C35.347 1.80225 42.847 16.8022 42.847 16.8022" stroke="#003049" stroke-width="3" stroke-linecap="round" stroke-linejoin="round"/>
<path d="M1.59698 16.8022C1.59698 16.8022 9.09699 31.8022 22.222 31.8022C35.347 31.8022 42.847 16.8022 42.847 16.8022" stroke="#003049" stroke-width="3" stroke-linecap="round" stroke-linejoin="round"/>
<path d="M22.222 22.4272C25.3286 22.4272 27.847 19.9088 27.847 16.8022C27.847 13.6956 25.3286 11.1772 22.222 11.1772C19.1154 11.1772 16.597 13.6956 16.597 16.8022C16.597 19.9088 19.1154 22.4272 22.222 22.4272Z" stroke="#003049" stroke-width="3" stroke-linecap="round" stroke-linejoin="round"/>
<path d="M0.596985 32.8022L43.597 0.802246" stroke="#003049" stroke-width="2"/>
</svg>
