<svg width="75" height="75" viewBox="0 0 75 75" fill="none" xmlns="http://www.w3.org/2000/svg">
<path d="M74.9998 38.3331C74.9998 35.2498 74.7445 32.9998 74.192 30.6665H38.2651V44.583H59.3534C58.9284 48.0414 56.6325 53.2498 51.5303 56.7496L51.4588 57.2155L62.8182 65.8395L63.6052 65.9165C70.833 59.3747 74.9998 49.7497 74.9998 38.3331Z" fill="#4285F4"/>
<path d="M38.2653 74.9998C48.5968 74.9998 57.2702 71.6663 63.6054 65.9165L51.5305 56.7496C48.2993 58.958 43.9625 60.4996 38.2653 60.4996C28.1463 60.4996 19.558 53.9581 16.4964 44.9165L16.0477 44.9538L4.23601 53.9122L4.08154 54.333C10.374 66.5829 23.2992 74.9998 38.2653 74.9998Z" fill="#34A853"/>
<path d="M16.4964 44.9165C15.6886 42.5832 15.2211 40.083 15.2211 37.4998C15.2211 34.9163 15.6886 32.4164 16.4539 30.0831L16.4325 29.5861L4.47283 20.4839L4.08153 20.6663C1.48811 25.7497 0 31.4581 0 37.4998C0 43.5414 1.48811 49.2496 4.08153 54.333L16.4964 44.9165Z" fill="#FBBC05"/>
<path d="M38.2653 14.4999C45.4506 14.4999 50.2974 17.5415 53.0611 20.0834L63.8604 9.75C57.228 3.70835 48.5968 0 38.2653 0C23.2992 0 10.374 8.4166 4.08154 20.6665L16.4539 30.0833C19.558 21.0416 28.1463 14.4999 38.2653 14.4999Z" fill="#EB4335"/>
</svg>
