<svg width="75" height="75" viewBox="0 0 75 75" fill="none" xmlns="http://www.w3.org/2000/svg">
<path d="M0 36C0 19.0294 0 10.5442 5.27208 5.27208C10.5442 0 19.0294 0 36 0H39C55.9706 0 64.4558 0 69.728 5.27208C75 10.5442 75 19.0294 75 36V39C75 55.9706 75 64.4558 69.728 69.728C64.4558 75 55.9706 75 39 75H36C19.0294 75 10.5442 75 5.27208 69.728C0 64.4558 0 55.9706 0 39V36Z" fill="#0077FF"/>
<path d="M39.9062 54.0312C22.8124 54.0312 13.0625 42.3125 12.6562 22.8125H21.2188C21.5 37.125 27.8124 43.1875 32.8123 44.4375V22.8125H40.8751V35.1561C45.8126 34.6249 50.9995 29 52.7495 22.8125H60.8122C59.4685 30.4375 53.8435 36.0625 49.8435 38.3749C53.8435 40.2499 60.2501 45.1562 62.6876 54.0312H53.8123C51.906 48.0937 47.1564 43.5 40.8751 42.8749V54.0312H39.9062Z" fill="white"/>
</svg>
