<svg width="75" height="75" viewBox="0 0 75 75" fill="none" xmlns="http://www.w3.org/2000/svg">
<path d="M0 37.5C0 16.7888 16.785 0 37.5 0C58.2075 0 75 16.7888 75 37.5C75 58.2113 58.2075 75 37.5 75C16.785 75 0 58.2113 0 37.5Z" fill="#FC3F1D"/>
<path d="M42.4107 21.3766H38.9732C32.6711 21.3766 29.3564 24.5685 29.3564 29.2746C29.3564 34.5946 31.648 37.0871 36.3541 40.2828L40.2418 42.9019L29.0699 59.5946H20.7217L30.7477 44.6615C24.9814 40.5283 21.7447 36.5142 21.7447 29.7248C21.7447 21.2129 27.6785 15.4019 38.9322 15.4019H50.1041V59.5536H42.4107V21.3766Z" fill="white"/>
</svg>
